# xmcd
#
# Track frame offsets:
#	150
#	17585
#	38812
#	56460
#	69810
#	80685
#	96365
#	112287
#	133715
#	148662
#	163092
#	179715
#
# Disc length: 2709 seconds
#
# Revision: 1
# Processed by: cddbd v1.5.1PL0 Copyright (c) Steve Scherf et al.
# Submitted via: CDex 1.50Beta5
#
DISCID=ab0a930c
DTITLE=横山智佐 - Chisa and The Heaven and Earth Band Live In L.A.
DYEAR=1997
DGENRE=Pop
TTITLE0=Tench Muyo!Ryo-Ohki’s Theme
TTITLE1=I’m a Pioneer
TTITLE2=Yumemireba Yumemo Yume Janai
TTITLE3=Pretty Sammy,The Magic Girl
TTITLE4=Instrumental
TTITLE5=Talent For Love
TTITLE6=Crazy For You
TTITLE7=Tench TV series Opening Theme
TTITLE8=Instrumental
TTITLE9=Baka
TTITLE10=Talent For Love
TTITLE11=I’m a Pioneer
EXTD=
EXTT0=
EXTT1=
EXTT2=
EXTT3=
EXTT4=
EXTT5=
EXTT6=
EXTT7=
EXTT8=
EXTT9=
EXTT10=
EXTT11=
PLAYORDER=
